PathFileType	4	(x/y/z)	S09_M20_T05
DataRate	CameraRate	NumFrames	NumMarkers	Units	OrigDataRate	OrigDataStartFrame	OrigNumFrames
240	240	11	51	mm	240	436	580
Frame#	Time	Sternum			R.Acromium			L.Acromium			Top.Head			R.ASIS			L.ASIS			R.PSIS			L.PSIS			R.Great.Tro			L.Great.Tro			R.Iliac.Crest			L.Iliac.Crest			V.Sacral			R.Thigh.Upper.Post			R.Thigh.Lower.Ant			R.Thigh.Lower.Post			R.Thigh.Upper.Ant			R.Knee.Lat			R.Knee.Med			R.Shank.Upper.Post			R.Shank.Lower.Ant			R.Shank.Lower.Post			R.Shank.Upper.Ant			R.Ankle.Lat			R.Ankle.Med			R.Heel.Upper			R.Heel.Med			R.Heel.Lat			R.Toe.Lat			R.Toe.Med			R.Toe.Tip			L.Thigh.Upper.Post			L.Thigh.Lower.Ant			L.Thigh.Lower.Post			L.Thigh.Upper.Ant			L.Knee.Lat			L.Knee.Med			L.Shank.Upper.Post			L.Shank.Lower.Ant			L.Shank.Lower.Post			L.Shank.Upper.Ant			L.Ankle.Lat			L.Ankle.Med			L.Heel.Upper			L.Heel.Med			L.Heel.Lat			L.Toe.Lat			L.Toe.Med			L.Toe.Tip			Cervical.Spine			Back			
		X1	Y1	Z1	X2	Y2	Z2	X3	Y3	Z3	X4	Y4	Z4	X5	Y5	Z5	X6	Y6	Z6	X7	Y7	Z7	X8	Y8	Z8	X9	Y9	Z9	X10	Y10	Z10	X11	Y11	Z11	X12	Y12	Z12	X13	Y13	Z13	X14	Y14	Z14	X15	Y15	Z15	X16	Y16	Z16	X17	Y17	Z17	X18	Y18	Z18	X19	Y19	Z19	X20	Y20	Z20	X21	Y21	Z21	X22	Y22	Z22	X23	Y23	Z23	X24	Y24	Z24	X25	Y25	Z25	X26	Y26	Z26	X27	Y27	Z27	X28	Y28	Z28	X29	Y29	Z29	X30	Y30	Z30	X31	Y31	Z31	X32	Y32	Z32	X33	Y33	Z33	X34	Y34	Z34	X35	Y35	Z35	X36	Y36	Z36	X37	Y37	Z37	X38	Y38	Z38	X39	Y39	Z39	X40	Y40	Z40	X41	Y41	Z41	X42	Y42	Z42	X43	Y43	Z43	X44	Y44	Z44	X45	Y45	Z45	X46	Y46	Z46	X47	Y47	Z47	X48	Y48	Z48	X49	Y49	Z49	X50	Y50	Z50	X51	Y51	Z51	

436	1.8125	1593.4	1203.5	291.63	1429.7	1433.5	413.08	1459.1	1436.8	114.57	1439.9	1734.7	254.58	1541.1	1021.7	392.73	1579.6	1027.3	147.61	1333.6	1039.6	283.74	1355	1048.4	196.7	1457.6	928.94	453.19	1521.2	935.84	70.146	1443.5	1095.5	426.76	1475.3	1119.7	98.397	1326.7	1009.2	230.6	1534.5	689.1	457.68	1636.5	612.38	439.39	1558.8	598.6	441.11	1606.1	697.15	455.17	1626.2	527.71	437.46	1640.2	509.15	316.9	1480.4	411.85	431.87	1507.4	324.59	437.52	1440.7	346.71	422.24	1540.2	390.34	446.67	1365.7	174.46	412.67	1415.9	158.45	336.58	1314	172.31	343.35	1317.2	134.85	320.38	1294.4	149.43	380.23	1415.7	84.488	477.25	1486.5	58.372	392.69	1522.5	61.175	448.07	1467.1	668.79	124.49	1553.7	579.63	143.98	1485.5	583.67	152.49	1538.8	662.22	112.92	1538.6	500.4	160.36	1545	524.17	291.81	1476.7	373.6	152.7	1527.6	278.05	176.34	1466.5	297.94	163.54	1536.5	355.25	165.99	1456.1	101.88	198.89	1467.4	101.88	291.78	1380.5	72.695	253.51	1392	49.505	286.63	1380.1	43.533	226.86	1552.5	39.891	172.62	1590.8	46.844	281.24	1641.5	60.761	221.16	1361.4	1476.4	266.43	1338	1206.1	243.78
437	1.8167	1598.1	1203.7	291.33	1434.8	1433.8	412.99	1464.3	1437.1	114.41	1445.3	1735	254.54	1546.1	1022.2	392.36	1583.9	1027.3	147.08	1338.2	1039.9	284.05	1359.4	1048.8	196.94	1463.3	929.68	453.4	1524.7	935.86	69.894	1448.3	1096	426.66	1479.6	1119.8	98.1	1331.1	1009.6	230.95	1542.2	690.24	457.37	1644.8	614.48	438.17	1567.2	599.95	440.57	1613.7	698.96	454.23	1635.2	529.67	436.37	1648.7	511.34	315.81	1491.5	410.67	431.76	1520.4	324.02	437.13	1453.2	344.73	422.4	1551.9	390.46	446.13	1381.8	170.9	413.1	1432.1	155.86	336.8	1329.9	167.46	343.94	1333.8	130.01	321.12	1311	144.18	380.97	1434.2	82.19	477.6	1505.2	57.57	392.76	1541.3	61.261	447.97	1469.2	669.26	124.8	1555.3	579.56	143.64	1487.3	584.03	152.64	1540.8	662.25	112.76	1539.9	500.34	160.08	1546.9	524.05	291.54	1477.6	373.66	152.6	1528.3	277.96	176.18	1467.1	298.03	163.48	1537.4	355.12	165.77	1456.2	101.97	198.96	1467.6	102	291.81	1380.6	72.832	253.61	1392.1	49.551	286.7	1380.1	43.67	226.95	1552.5	39.827	172.6	1590.9	46.695	281.21	1641.6	60.484	221.12	1366.6	1476.8	266.3	1342.7	1206.6	243.54
438	1.8208	1602.9	1203.8	291.02	1439.9	1434	412.9	1469.4	1437.4	114.24	1450.6	1735.3	254.5	1551	1022.6	391.98	1588.2	1027.3	146.54	1342.9	1040.2	284.39	1363.8	1049.1	197.22	1469	930.37	453.59	1528.1	935.85	69.659	1453.1	1096.5	426.57	1483.9	1120	97.806	1335.6	1009.9	231.34	1549.9	691.35	457.05	1653	616.5	436.94	1575.6	601.25	440.02	1621.3	700.71	453.27	1644.1	531.57	435.26	1657.1	513.47	314.71	1502.7	409.45	431.67	1533.4	323.46	436.72	1465.6	342.71	422.57	1563.5	390.56	445.57	1398	167.37	413.5	1448.3	153.32	336.98	1345.8	162.65	344.53	1350.6	125.25	321.84	1327.7	138.97	381.68	1452.7	79.939	477.86	1523.9	56.857	392.74	1560.2	61.414	447.77	1471.4	669.7	125.12	1557	579.47	143.36	1489.1	584.37	152.82	1542.8	662.26	112.62	1541.2	500.27	159.83	1548.9	523.91	291.3	1478.5	373.72	152.52	1528.9	277.85	176.03	1467.8	298.12	163.45	1538.3	354.99	165.58	1456.4	102.07	199.05	1467.9	102.11	291.86	1380.7	72.969	253.72	1392.1	49.596	286.78	1380.2	43.806	227.05	1552.6	39.773	172.59	1591	46.539	281.19	1641.7	60.214	221.09	1371.8	1477.2	266.18	1347.5	1207.1	243.32
439	1.825	1607.7	1203.8	290.7	1445	1434.2	412.82	1474.6	1437.7	114.07	1456	1735.5	254.46	1556	1022.9	391.59	1592.4	1027.2	146	1347.5	1040.5	284.76	1368.1	1049.4	197.54	1474.7	931	453.78	1531.6	935.79	69.44	1458.1	1096.9	426.49	1488.1	1120.1	97.518	1340	1010.2	231.77	1557.5	692.42	456.71	1661	618.45	435.69	1583.8	602.51	439.44	1628.7	702.39	452.29	1652.9	533.41	434.15	1665.3	515.53	313.61	1513.8	408.17	431.59	1546.4	322.89	436.27	1478.2	340.67	422.75	1575.1	390.63	445	1414.3	163.87	413.87	1464.5	150.83	337.13	1361.9	157.89	345.1	1367.4	120.57	322.52	1344.5	133.82	382.38	1471.2	77.746	478.06	1542.7	56.236	392.63	1579	61.639	447.47	1473.5	670.12	125.44	1558.6	579.35	143.11	1490.9	584.69	153.01	1544.8	662.24	112.51	1542.6	500.19	159.62	1550.8	523.75	291.1	1479.5	373.77	152.46	1529.6	277.74	175.92	1468.5	298.21	163.43	1539.2	354.84	165.42	1456.6	102.17	199.14	1468.1	102.2	291.92	1380.8	73.105	253.83	1392.2	49.64	286.86	1380.4	43.941	227.15	1552.6	39.727	172.58	1591	46.376	281.18	1641.8	59.951	221.07	1377	1477.6	266.08	1352.2	1207.5	243.14
440	1.8292	1612.5	1203.8	290.37	1450.2	1434.3	412.75	1479.7	1437.8	113.89	1461.3	1735.7	254.43	1561	1023.2	391.2	1596.6	1027.1	145.46	1352.1	1040.8	285.17	1372.4	1049.7	197.89	1480.4	931.58	453.95	1535	935.71	69.241	1463	1097.3	426.42	1492.2	1120.1	97.242	1344.4	1010.5	232.24	1565	693.45	456.35	1668.9	620.32	434.44	1591.9	603.72	438.85	1636.1	704	451.29	1661.5	535.19	433.02	1673.4	517.51	312.49	1524.8	406.86	431.5	1559.4	322.33	435.81	1490.7	338.62	422.92	1586.7	390.69	444.41	1430.7	160.42	414.21	1480.8	148.41	337.24	1378.1	153.2	345.67	1384.4	115.99	323.17	1361.5	128.73	383.05	1489.8	75.622	478.18	1561.5	55.716	392.42	1597.8	61.942	447.08	1475.7	670.52	125.76	1560.4	579.22	142.9	1492.7	584.99	153.21	1546.9	662.21	112.43	1544	500.1	159.45	1552.8	523.57	290.93	1480.4	373.81	152.43	1530.3	277.63	175.82	1469.3	298.29	163.44	1540.1	354.69	165.28	1456.7	102.27	199.24	1468.3	102.29	292	1380.9	73.238	253.95	1392.3	49.684	286.94	1380.5	44.076	227.25	1552.6	39.688	172.59	1591.1	46.208	281.17	1641.9	59.695	221.05	1382.2	1477.9	265.99	1357	1207.9	242.98
441	1.8333	1617.4	1203.7	290.03	1455.4	1434.4	412.68	1484.8	1438	113.72	1466.7	1735.8	254.41	1566	1023.5	390.8	1600.8	1027	144.91	1356.7	1041	285.61	1376.8	1049.9	198.28	1486	932.1	454.11	1538.5	935.59	69.06	1468	1097.6	426.35	1496.3	1120.1	96.981	1348.9	1010.7	232.74	1572.4	694.42	455.98	1676.7	622.12	433.18	1599.9	604.88	438.24	1643.4	705.54	450.29	1670	536.91	431.87	1681.3	519.41	311.36	1535.9	405.51	431.41	1572.4	321.78	435.32	1503.2	336.55	423.08	1598.2	390.74	443.81	1447.1	157.02	414.54	1497.2	146.06	337.33	1394.4	148.59	346.22	1401.4	111.52	323.79	1378.5	123.73	383.71	1508.5	73.577	478.23	1580.2	55.299	392.13	1616.6	62.331	446.59	1477.9	670.9	126.07	1562.2	579.06	142.74	1494.6	585.28	153.42	1549	662.15	112.37	1545.4	500	159.3	1554.7	523.37	290.78	1481.4	373.85	152.42	1531	277.5	175.75	1470	298.36	163.46	1541	354.53	165.17	1456.9	102.38	199.36	1468.6	102.37	292.09	1381	73.368	254.08	1392.4	49.727	287.03	1380.6	44.21	227.35	1552.7	39.657	172.59	1591.2	46.035	281.17	1642	59.445	221.04	1387.5	1478.2	265.91	1361.7	1208.2	242.85
442	1.8375	1622.2	1203.5	289.69	1460.5	1434.4	412.62	1489.9	1438	113.55	1472	1735.9	254.39	1571	1023.7	390.39	1604.9	1026.8	144.37	1361.4	1041.2	286.09	1381.1	1050.1	198.7	1491.6	932.57	454.26	1542	935.44	68.899	1473	1097.9	426.28	1500.4	1120.1	96.74	1353.3	1010.9	233.29	1579.7	695.35	455.59	1684.4	623.83	431.93	1607.7	605.98	437.62	1650.5	707.01	449.28	1678.3	538.55	430.72	1689.1	521.24	310.22	1546.9	404.13	431.31	1585.3	321.26	434.8	1515.7	334.48	423.23	1609.6	390.78	443.19	1463.7	153.68	414.83	1513.5	143.8	337.38	1410.7	144.05	346.77	1418.6	107.16	324.38	1395.7	118.81	384.34	1527.3	71.622	478.22	1599	54.993	391.76	1635.5	62.814	446.02	1480.1	671.25	126.37	1564	578.89	142.6	1496.4	585.55	153.61	1551.2	662.07	112.33	1546.9	499.89	159.17	1556.6	523.14	290.65	1482.4	373.88	152.43	1531.7	277.36	175.69	1470.7	298.43	163.5	1541.9	354.36	165.08	1457.1	102.49	199.48	1468.8	102.43	292.2	1381.1	73.494	254.21	1392.5	49.77	287.11	1380.7	44.344	227.45	1552.7	39.631	172.6	1591.2	45.858	281.17	1642.1	59.202	221.03	1392.7	1478.5	265.84	1366.5	1208.5	242.74
443	1.8417	1627.1	1203.3	289.33	1465.8	1434.3	412.56	1495	1438	113.38	1477.3	1736	254.37	1576.1	1023.8	389.97	1609	1026.6	143.82	1366	1041.4	286.6	1385.4	1050.2	199.16	1497.2	932.97	454.4	1545.4	935.26	68.759	1478.1	1098.1	426.22	1504.4	1120	96.522	1357.7	1011.1	233.87	1586.9	696.21	455.19	1692	625.46	430.68	1615.5	607.03	436.99	1657.6	708.39	448.26	1686.6	540.13	429.56	1696.7	522.98	309.07	1558	402.73	431.2	1598.2	320.76	434.27	1528.2	332.41	423.35	1621	390.81	442.55	1480.3	150.41	415.1	1529.9	141.62	337.4	1427.2	139.61	347.3	1435.8	102.92	324.93	1413	114	384.96	1546.1	69.767	478.14	1617.8	54.803	391.3	1654.3	63.399	445.36	1482.4	671.59	126.66	1565.8	578.69	142.5	1498.3	585.8	153.8	1553.3	661.97	112.31	1548.4	499.76	159.07	1558.4	522.9	290.55	1483.4	373.91	152.45	1532.4	277.22	175.64	1471.5	298.48	163.55	1542.9	354.18	165	1457.3	102.61	199.6	1469.1	102.49	292.31	1381.3	73.615	254.34	1392.5	49.813	287.2	1380.7	44.48	227.55	1552.8	39.612	172.62	1591.3	45.68	281.17	1642.2	58.965	221.02	1397.9	1478.7	265.79	1371.2	1208.8	242.67
444	1.8458	1632	1203	288.97	1471	1434.2	412.52	1500	1438	113.22	1482.6	1736	254.36	1581.1	1023.9	389.55	1613.1	1026.3	143.28	1370.6	1041.5	287.15	1389.8	1050.3	199.65	1502.8	933.32	454.53	1549	935.06	68.639	1483.3	1098.3	426.16	1508.4	1119.9	96.328	1362.1	1011.3	234.49	1594	697.02	454.78	1699.4	626.99	429.43	1623.1	608.01	436.35	1664.5	709.7	447.24	1694.7	541.63	428.4	1704.2	524.63	307.92	1568.9	401.31	431.06	1611.1	320.29	433.72	1540.8	330.35	423.44	1632.3	390.85	441.9	1497	147.22	415.35	1546.3	139.55	337.39	1443.8	135.27	347.82	1453	98.807	325.46	1430.3	109.3	385.55	1564.9	68.026	478	1636.6	54.734	390.77	1673	64.097	444.63	1484.6	671.9	126.93	1567.7	578.48	142.42	1500.1	586.03	153.98	1555.5	661.85	112.31	1549.9	499.62	158.99	1560.3	522.63	290.46	1484.4	373.93	152.49	1533.1	277.06	175.61	1472.3	298.54	163.62	1543.9	353.99	164.93	1457.5	102.73	199.73	1469.3	102.54	292.44	1381.4	73.732	254.47	1392.6	49.855	287.29	1380.8	44.615	227.65	1552.8	39.597	172.64	1591.3	45.499	281.18	1642.3	58.735	221.02	1403.2	1478.9	265.74	1376	1209	242.63
445	1.85	1636.9	1202.7	288.6	1476.2	1434.1	412.48	1505.1	1437.9	113.06	1487.9	1735.9	254.36	1586.2	1023.9	389.13	1617.1	1026	142.74	1375.2	1041.6	287.72	1394.1	1050.4	200.18	1508.4	933.61	454.64	1552.5	934.83	68.539	1488.4	1098.5	426.1	1512.4	1119.8	96.162	1366.5	1011.4	235.14	1601	697.77	454.35	1706.7	628.44	428.19	1630.6	608.93	435.69	1671.4	710.91	446.23	1702.6	543.06	427.23	1711.6	526.19	306.76	1579.9	399.88	430.91	1623.9	319.85	433.16	1553.3	328.31	423.49	1643.6	390.89	441.24	1513.8	144.12	415.56	1562.8	137.58	337.35	1460.4	131.03	348.33	1470.4	94.829	325.94	1447.8	104.73	386.12	1583.8	66.408	477.8	1655.3	54.794	390.16	1691.8	64.918	443.81	1486.9	672.19	127.19	1569.6	578.25	142.36	1502	586.25	154.13	1557.8	661.71	112.31	1551.5	499.46	158.93	1562.2	522.34	290.39	1485.5	373.94	152.54	1533.8	276.9	175.58	1473.1	298.58	163.69	1544.9	353.79	164.88	1457.6	102.86	199.87	1469.6	102.59	292.58	1381.5	73.843	254.61	1392.7	49.897	287.38	1380.9	44.751	227.74	1552.9	39.587	172.66	1591.4	45.319	281.19	1642.4	58.509	221.02	1408.4	1479	265.71	1380.7	1209.1	242.62
446	1.8542	1641.8	1202.3	288.23	1481.5	1433.9	412.45	1510.2	1437.8	112.9	1493.2	1735.9	254.36	1591.3	1023.9	388.7	1621.2	1025.7	142.21	1379.9	1041.6	288.32	1398.4	1050.5	200.74	1513.9	933.84	454.75	1556.1	934.58	68.46	1493.7	1098.6	426.05	1516.3	1119.6	96.022	1370.9	1011.4	235.83	1607.9	698.45	453.91	1713.8	629.79	426.96	1638	609.77	435.04	1678.2	712.04	445.22	1710.5	544.4	426.05	1718.8	527.66	305.59	1590.8	398.44	430.72	1636.6	319.46	432.57	1565.8	326.29	423.51	1654.7	390.93	440.55	1530.6	141.12	415.74	1579.2	135.73	337.27	1477.1	126.91	348.82	1487.7	90.988	326.4	1465.3	100.28	386.67	1602.7	64.926	477.54	1674	54.988	389.47	1710.5	65.873	442.92	1489.2	672.45	127.43	1571.6	578	142.31	1503.9	586.45	154.26	1560	661.55	112.33	1553	499.29	158.88	1564.1	522.04	290.33	1486.5	373.94	152.6	1534.6	276.73	175.57	1473.9	298.62	163.78	1545.9	353.59	164.84	1457.9	102.99	200.01	1469.8	102.62	292.72	1381.6	73.949	254.74	1392.8	49.937	287.47	1381	44.887	227.84	1552.9	39.582	172.69	1591.4	45.14	281.19	1642.4	58.289	221.03	1413.7	1479.1	265.68	1385.5	1209.3	242.64
